REM DIRINDEX 1\2,1\3,1\4
REM DIRNAME cjc151,folder01,folder02,folder03
TITLE ""
FILE "131 131_Lesson 4_TOEFL_3900.mp3" MP3
  TRACK 01 AUDIO
    TITLE "4:cjc151_5690"
    INDEX 01 00:00:00
  TRACK 02 AUDIO
    TITLE "0:"
    INDEX 01 00:01:50
  TRACK 03 AUDIO
    TITLE "2:cjc151_5691"
    INDEX 01 00:02:32
  TRACK 04 AUDIO
    TITLE "0:"
    INDEX 01 00:03:39
  TRACK 05 AUDIO
    TITLE "3:cjc151_5692"
    INDEX 01 00:05:18
  TRACK 06 AUDIO
    TITLE "0:"
    INDEX 01 00:09:44
  TRACK 07 AUDIO
    TITLE "2:cjc151_5693"
    INDEX 01 00:11:23
  TRACK 08 AUDIO
    TITLE "0:"
    INDEX 01 00:12:36
  TRACK 09 AUDIO
    TITLE "3:cjc151_5694"
    INDEX 01 00:14:11
  TRACK 10 AUDIO
    TITLE "0:"
    INDEX 01 00:18:11
  TRACK 11 AUDIO
    TITLE "2:cjc151_5695"
    INDEX 01 00:19:63
  TRACK 12 AUDIO
    TITLE "0:"
    INDEX 01 00:21:15
  TRACK 13 AUDIO
    TITLE "3:cjc151_5696"
    INDEX 01 00:22:70
  TRACK 14 AUDIO
    TITLE "0:"
    INDEX 01 00:26:42
  TRACK 15 AUDIO
    TITLE "2:cjc151_5697"
    INDEX 01 00:28:19
  TRACK 16 AUDIO
    TITLE "0:"
    INDEX 01 00:29:25
  TRACK 17 AUDIO
    TITLE "3:cjc151_5698"
    INDEX 01 00:31:04
  TRACK 18 AUDIO
    TITLE "0:"
    INDEX 01 00:34:73
  TRACK 19 AUDIO
    TITLE "2:cjc151_5699"
    INDEX 01 00:36:52
  TRACK 20 AUDIO
    TITLE "0:"
    INDEX 01 00:37:67
  TRACK 21 AUDIO
    TITLE "3:cjc151_5700"
    INDEX 01 00:39:47
  TRACK 22 AUDIO
    TITLE "0:"
    INDEX 01 00:44:14
  TRACK 23 AUDIO
    TITLE "2:cjc151_5701"
    INDEX 01 00:45:67
  TRACK 24 AUDIO
    TITLE "0:"
    INDEX 01 00:47:01
  TRACK 25 AUDIO
    TITLE "3:cjc151_5702"
    INDEX 01 00:48:53
  TRACK 26 AUDIO
    TITLE "0:"
    INDEX 01 00:53:27
  TRACK 27 AUDIO
    TITLE "2:cjc151_5703"
    INDEX 01 00:55:16
  TRACK 28 AUDIO
    TITLE "0:"
    INDEX 01 00:56:51
  TRACK 29 AUDIO
    TITLE "3:cjc151_5704"
    INDEX 01 00:58:28
  TRACK 30 AUDIO
    TITLE "0:"
    INDEX 01 01:02:63
  TRACK 31 AUDIO
    TITLE "2:cjc151_5705"
    INDEX 01 01:04:39
  TRACK 32 AUDIO
    TITLE "0:"
    INDEX 01 01:05:58
  TRACK 33 AUDIO
    TITLE "3:cjc151_5706"
    INDEX 01 01:07:35
  TRACK 34 AUDIO
    TITLE "0:"
    INDEX 01 01:10:69
  TRACK 35 AUDIO
    TITLE "2:cjc151_5707"
    INDEX 01 01:12:50
  TRACK 36 AUDIO
    TITLE "0:"
    INDEX 01 01:13:55
  TRACK 37 AUDIO
    TITLE "3:cjc151_5708"
    INDEX 01 01:15:35
  TRACK 38 AUDIO
    TITLE "0:"
    INDEX 01 01:19:19
  TRACK 39 AUDIO
    TITLE "2:cjc151_5709"
    INDEX 01 01:20:71
  TRACK 40 AUDIO
    TITLE "0:"
    INDEX 01 01:22:11
  TRACK 41 AUDIO
    TITLE "3:cjc151_5710"
    INDEX 01 01:23:63
  TRACK 42 AUDIO
    TITLE "0:"
    INDEX 01 01:27:40
  TRACK 43 AUDIO
    TITLE "2:cjc151_5711"
    INDEX 01 01:29:19
  TRACK 44 AUDIO
    TITLE "0:"
    INDEX 01 01:30:30
  TRACK 45 AUDIO
    TITLE "3:cjc151_5712"
    INDEX 01 01:32:12
  TRACK 46 AUDIO
    TITLE "0:"
    INDEX 01 01:36:27
  TRACK 47 AUDIO
    TITLE "2:cjc151_5713"
    INDEX 01 01:38:06
  TRACK 48 AUDIO
    TITLE "0:"
    INDEX 01 01:39:14
  TRACK 49 AUDIO
    TITLE "3:cjc151_5714"
    INDEX 01 01:40:66
  TRACK 50 AUDIO
    TITLE "0:"
    INDEX 01 01:45:12
  TRACK 51 AUDIO
    TITLE "2:cjc151_5715"
    INDEX 01 01:46:65
  TRACK 52 AUDIO
    TITLE "0:"
    INDEX 01 01:48:20
  TRACK 53 AUDIO
    TITLE "3:cjc151_5716"
    INDEX 01 01:50:00
  TRACK 54 AUDIO
    TITLE "0:"
    INDEX 01 01:54:17
  TRACK 55 AUDIO
    TITLE "2:cjc151_5717"
    INDEX 01 01:55:73
  TRACK 56 AUDIO
    TITLE "0:"
    INDEX 01 01:57:02
  TRACK 57 AUDIO
    TITLE "3:cjc151_5718"
    INDEX 01 01:58:54
  TRACK 58 AUDIO
    TITLE "0:"
    INDEX 01 02:02:15
  TRACK 59 AUDIO
    TITLE "2:cjc151_5719"
    INDEX 01 02:03:67
  TRACK 60 AUDIO
    TITLE "0:"
    INDEX 01 02:05:01
  TRACK 61 AUDIO
    TITLE "3:cjc151_5720"
    INDEX 01 02:06:54
  TRACK 62 AUDIO
    TITLE "0:"
    INDEX 01 02:10:61
  TRACK 63 AUDIO
    TITLE "2:cjc151_5721"
    INDEX 01 02:12:38
  TRACK 64 AUDIO
    TITLE "0:"
    INDEX 01 02:13:59
  TRACK 65 AUDIO
    TITLE "3:cjc151_5722"
    INDEX 01 02:15:37
  TRACK 66 AUDIO
    TITLE "0:"
    INDEX 01 02:19:62
  TRACK 67 AUDIO
    TITLE "2:cjc151_5723"
    INDEX 01 02:21:41
  TRACK 68 AUDIO
    TITLE "0:"
    INDEX 01 02:22:54
  TRACK 69 AUDIO
    TITLE "3:cjc151_5724"
    INDEX 01 02:24:32
  TRACK 70 AUDIO
    TITLE "0:"
    INDEX 01 02:28:16
  TRACK 71 AUDIO
    TITLE "2:cjc151_5725"
    INDEX 01 02:29:68
  TRACK 72 AUDIO
    TITLE "0:"
    INDEX 01 02:30:72
  TRACK 73 AUDIO
    TITLE "3:cjc151_5726"
    INDEX 01 02:32:49
  TRACK 74 AUDIO
    TITLE "0:"
    INDEX 01 02:36:57
  TRACK 75 AUDIO
    TITLE "2:cjc151_5727"
    INDEX 01 02:38:38
  TRACK 76 AUDIO
    TITLE "0:"
    INDEX 01 02:39:47
  TRACK 77 AUDIO
    TITLE "3:cjc151_5728"
    INDEX 01 02:41:30
  TRACK 78 AUDIO
    TITLE "0:"
    INDEX 01 02:45:26
  TRACK 79 AUDIO
    TITLE "2:cjc151_5729"
    INDEX 01 02:47:07
  TRACK 80 AUDIO
    TITLE "0:"
    INDEX 01 02:48:15
  TRACK 81 AUDIO
    TITLE "3:cjc151_5730"
    INDEX 01 02:49:67
  TRACK 82 AUDIO
    TITLE "0:"
    INDEX 01 02:54:13
  TRACK 83 AUDIO
    TITLE "2:cjc151_5731"
    INDEX 01 02:55:66
  TRACK 84 AUDIO
    TITLE "0:"
    INDEX 01 02:57:04
  TRACK 85 AUDIO
    TITLE "3:cjc151_5732"
    INDEX 01 02:58:58
  TRACK 86 AUDIO
    TITLE "0:"
    INDEX 01 03:02:42
  TRACK 87 AUDIO
    TITLE "2:cjc151_5733"
    INDEX 01 03:04:24
  TRACK 88 AUDIO
    TITLE "0:"
    INDEX 01 03:05:52
  TRACK 89 AUDIO
    TITLE "3:cjc151_5734"
    INDEX 01 03:07:32
  TRACK 90 AUDIO
    TITLE "0:"
    INDEX 01 03:11:57
